<?xml version="1.0" encoding="UTF-8"?>
<svg version="1.1" xmlns="http://www.w3.org/2000/svg" width="47" height="47">
<path d="M0 0 C15.51 0 31.02 0 47 0 C47 15.51 47 31.02 47 47 C31.49 47 15.98 47 0 47 C0 31.49 0 15.98 0 0 Z " fill="#00C59B" transform="translate(0,0)"/>
<path d="M0 0 C2.6292223 4.55381303 2.67500186 8.85831913 2 14 C0.1902968 17.21725013 -1.17345547 18.54322539 -4.375 20.3125 C-7.44295134 21.11601106 -9.84078441 21.33608677 -13 21 C-15.375 19.5 -15.375 19.5 -17 18 C-17.33 19.32 -17.66 20.64 -18 22 C-18.66 22 -19.32 22 -20 22 C-20.042721 20.33388095 -20.04063832 18.66617115 -20 17 C-19.67 16.67 -19.34 16.34 -19 16 C-18.54717286 13.74931459 -18.1655971 11.49184772 -17.79296875 9.2265625 C-16.75971706 6.32531391 -15.63388512 5.55864557 -13 4 C-11.15073392 3.20783588 -9.2728081 2.48005783 -7.375 1.8125 C-6.41335937 1.46832031 -5.45171875 1.12414062 -4.4609375 0.76953125 C-2 0 -2 0 0 0 Z " fill="#09272A" transform="translate(33,14)"/>
<path d="M0 0 C0.6132879 8.92674617 0.6132879 8.92674617 -1.5 12.625 C-5.14620405 14.63041222 -7.87185813 14.27520946 -12 14 C-12.33 13.34 -12.66 12.68 -13 12 C-12.030625 11.525625 -11.06125 11.05125 -10.0625 10.5625 C-7.19522563 9.29806053 -7.19522563 9.29806053 -6 8 C-8.64 8.33 -11.28 8.66 -14 9 C-13.67 7.35 -13.34 5.7 -13 4 C-12.37351562 3.79503906 -11.74703125 3.59007812 -11.1015625 3.37890625 C-10.28429687 3.10949219 -9.46703125 2.84007812 -8.625 2.5625 C-7.81289063 2.29566406 -7.00078125 2.02882813 -6.1640625 1.75390625 C-1.12953368 0 -1.12953368 0 0 0 Z " fill="#00C098" transform="translate(32,18)"/>
<path d="M0 0 C0.33 1.32 0.66 2.64 1 4 C1.9075 3.484375 2.815 2.96875 3.75 2.4375 C7 1 7 1 9.375 1.3125 C9.91125 1.539375 10.4475 1.76625 11 2 C8.87219421 4.34058637 6.88437779 5.70700306 4 7 C5.32 7.66 6.64 8.32 8 9 C8 9.66 8 10.32 8 11 C4.62537285 10.45276317 2.91765 9.9451 0 8 C-0.33 9.32 -0.66 10.64 -1 12 C-1.66 12 -2.32 12 -3 12 C-3.43200679 7.24792529 -1.98489083 4.21789302 0 0 Z " fill="#0A1A20" transform="translate(16,24)"/>
<path d="M0 0 C2.97 0 5.94 0 9 0 C8.2575 0.5775 7.515 1.155 6.75 1.75 C4.33912357 3.72253526 2.15957299 5.76044282 0 8 C0 5.36 0 2.72 0 0 Z " fill="#0A141C" transform="translate(0,0)"/>
<path d="M0 0 C3 1 3 1 4 3 C2.7934375 3.37125 2.7934375 3.37125 1.5625 3.75 C-1.171081 4.72238859 -1.171081 4.72238859 -1.8125 7.125 C-1.874375 7.74375 -1.93625 8.3625 -2 9 C-1.34 9.33 -0.68 9.66 0 10 C-0.99 10 -1.98 10 -3 10 C-3.66 8.35 -4.32 6.7 -5 5 C-3.35 3.35 -1.7 1.7 0 0 Z " fill="#093332" transform="translate(20,18)"/>
<path d="M0 0 C3.3 0 6.6 0 10 0 C10 2.31 10 4.62 10 7 C8.56770833 5.76302083 7.13541667 4.52604167 5.703125 3.2890625 C3.72409366 1.70937846 3.72409366 1.70937846 0 0 Z " fill="#0A1B23" transform="translate(37,0)"/>
<path d="M0 0 C3 1 3 1 4 3 C4.04022391 5.3329866 4.04320247 7.66706666 4 10 C3.34 10 2.68 10 2 10 C1.8046875 7.94921875 1.609375 5.8984375 1.4140625 3.84765625 C1.27742188 3.23792969 1.14078125 2.62820312 1 2 C0.34 1.67 -0.32 1.34 -1 1 C-0.67 0.67 -0.34 0.34 0 0 Z " fill="#0A1921" transform="translate(31,15)"/>
<path d="M0 0 C-2.17424117 2.50037734 -3.73045798 3.43628586 -7 4 C-6.625 2.0625 -6.625 2.0625 -6 0 C-3.50907189 -1.24546405 -2.58919267 -0.7767578 0 0 Z " fill="#09282B" transform="translate(27,26)"/>
</svg>
